<svg xmlns="http://www.w3.org/2000/svg" viewBox="0 0 64 64" role="img" aria-label="希沃智教π">
  <defs>
    <linearGradient id="bg" x1="8" y1="8" x2="56" y2="56" gradientUnits="userSpaceOnUse">
      <stop stop-color="#1d70f2"/>
      <stop offset="1" stop-color="#00cc92"/>
    </linearGradient>
    <linearGradient id="shine" x1="18" y1="10" x2="46" y2="54" gradientUnits="userSpaceOnUse">
      <stop stop-color="#ffffff" stop-opacity=".96"/>
      <stop offset="1" stop-color="#ffffff" stop-opacity=".78"/>
    </linearGradient>
  </defs>
  <rect width="64" height="64" rx="16" fill="url(#bg)"/>
  <path d="M18 25.5c0-2.2 1.8-4 4-4h25c2.2 0 4 1.8 4 4s-1.8 4-4 4h-3.4v13.2c0 2.4-1.9 4.3-4.3 4.3s-4.3-1.9-4.3-4.3V29.5h-6.4l-2.5 13.9c-.4 2.1-2.1 3.6-4.2 3.6-2.7 0-4.7-2.4-4.2-5l2.3-12.5c-1.2-.6-2-2.1-2-4Z" fill="url(#shine)"/>
  <circle cx="47.5" cy="16.5" r="4.5" fill="#fff" opacity=".78"/>
</svg>
